# xmcd
#
# Track frame offsets:
#	150
#	11300
#	25765
#	38817
#	48977
#	61032
#	71215
#	91282
#	104450
#	113160
#	122690
#	131347
#	142177
#
# Disc length: 2018 seconds
#
# Revision: 0
# Processed by: cddbd v1.5.1PL2 Copyright (c) Steve Scherf et al.
# Submitted via: dBpowerAMP V4.0
#
DISCID=ab07e00d
DTITLE=Loretta Lynn - The Great Loretta Lynn Live
DYEAR=1900
DGENRE=Country
TTITLE0=Hey Loretta
TTITLE1=Coal Miner's Daughter
TTITLE2=You're Lookin' At Country
TTITLE3=Your're Lookin' At Country
TTITLE4=Me And Bobby McGee
TTITLE5=Somebody Somewhere
TTITLE6=Medley - I Fall To Pieces, Walkin' After Midnight and Crazy
TTITLE7=Medley - Back In Baby's Arms and She's Got You
TTITLE8=They Don't Make 'Em Like My Daddy
TTITLE9=You Ain't Woman Enough
TTITLE10=We've Come A Long Way, Baby
TTITLE11=Spring Fever
TTITLE12=Y'all Come
EXTD=
EXTT0=
EXTT1=
EXTT2=
EXTT3=
EXTT4=
EXTT5=
EXTT6=
EXTT7=
EXTT8=
EXTT9=
EXTT10=
EXTT11=
EXTT12=
PLAYORDER=
